<?xml version="1.0" encoding="iso-8859-1"?>
<!DOCTYPE svg PUBLIC "-//W3C//DTD SVG 1.1//EN" "http://www.w3.org/Graphics/SVG/1.1/DTD/svg11.dtd">
<svg 
 version="1.1" xmlns="http://www.w3.org/2000/svg" xmlns:xlink="http://www.w3.org/1999/xlink" x="0px" y="0px" width="512px"
	 height="512px" viewBox="0 0 512 512" style="enable-background:new 0 0 512 512;" xml:space="preserve"
><g id="9f7e7d65bebc9157b4431a86ec0d98b6"><g></g><path style="display: inline;" d="M483.111,141.498v351.076c0,10.409-8.518,18.926-18.927,18.926H104.593
		c-10.409,0-18.926-8.517-18.926-18.926v-79.016h37.852v60.09h321.74V151.907h-86.109c-15.096,0-27.446-12.352-27.446-27.446V38.352
		H123.519v170.333H85.667V19.426c0-10.409,8.517-18.926,18.926-18.926h236.101v0.065c3.017,0.279,6.587,2.24,10.42,6.071
		l125.861,125.861c3.246,3.246,5.153,6.307,5.833,9.001H483.111z M199.155,275.539h-14.172v68.541h14.172
		c9.537,0,14.306-5.22,14.306-15.67v-37.197C213.461,280.767,208.692,275.539,199.155,275.539z M369.556,246.537v129.17
		c0,10.408-8.517,18.926-18.927,18.926H47.814c-10.409,0-18.926-8.518-18.926-18.926v-129.17c0-10.409,8.517-18.926,18.926-18.926
		h302.814C361.039,227.611,369.556,236.128,369.556,246.537z M142.74,290.666c0-10.539-2.817-18.283-8.446-23.236
		c-5.634-4.945-13.13-7.424-22.486-7.424H84.417c-1.996,0-3.608,0.545-4.835,1.635c-1.227,1.087-1.841,2.362-1.841,3.814v88.575
		c0,1.723,0.861,3.091,2.591,4.089c1.723,0.998,3.814,1.496,6.266,1.496c2.362,0,4.428-0.498,6.203-1.496
		c1.771-0.998,2.654-2.366,2.654-4.089v-31.616h15.263c9.629,0,17.373-2.494,23.231-7.492c5.863-4.998,8.791-12.813,8.791-23.439
		V290.666z M231.178,291.213c0-10.813-2.909-18.715-8.72-23.713c-5.818-4.994-13.585-7.494-23.303-7.494h-24.119
		c-2.273,0-4.137,0.545-5.589,1.635c-1.453,1.087-2.178,2.362-2.178,3.814v88.709c0,1.456,0.725,2.728,2.178,3.814
		c1.452,1.094,3.315,1.637,5.589,1.637h24.119c9.718,0,17.484-2.494,23.303-7.492c5.811-4.998,8.72-12.9,8.72-23.713V291.213z
		 M320.703,267.637c0-2.092-0.455-3.885-1.364-5.383c-0.909-1.5-2.27-2.248-4.089-2.248h-47.555c-2.092,0-3.907,0.5-5.452,1.498
		c-1.545,1.002-2.314,2.362-2.314,4.088v88.438c0,1.723,0.861,3.091,2.588,4.089s3.814,1.496,6.27,1.496
		c2.361,0,4.428-0.498,6.198-1.496c1.771-0.998,2.658-2.366,2.658-4.089v-37.338h20.848c1.727,0,3.068-0.685,4.022-2.044
		c0.953-1.364,1.431-2.95,1.431-4.769c0-1.996-0.478-3.682-1.431-5.042c-0.954-1.364-2.296-2.048-4.022-2.048h-20.848v-27.251
		h37.607c1.727,0,3.068-0.769,4.022-2.317C320.226,271.681,320.703,269.817,320.703,267.637z M110.718,275.539H95.455v32.977h15.263
		c4.543,0,8.062-1.316,10.561-3.951c2.499-2.632,3.748-6.543,3.748-11.718v-1.634c0-5.183-1.249-9.086-3.748-11.722
		S115.261,275.539,110.718,275.539z"></path></g></svg>